<svg id="eA4g6xB07bP1" xmlns="http://www.w3.org/2000/svg" xmlns:xlink="http://www.w3.org/1999/xlink" viewBox="0 0 80 80" shape-rendering="geometricPrecision" text-rendering="geometricPrecision" width="80" height="80"><rect width="59.61902" height="2.856001" rx="0" ry="0" transform="matrix(.425937 0 0 1 13.598661 54.913117)" stroke-width="0"/><rect width="59.61902" height="2.856001" rx="0" ry="0" transform="matrix(.603308 0 0 1 13.598661 43.188193)" stroke-width="0"/><rect width="59.61902" height="2.856001" rx="0" ry="0" transform="matrix(.852122 0 0 1 13.598661 25.600807)" stroke-width="0"/><rect width="59.61902" height="2.856001" rx="0" ry="0" transform="matrix(.425937 0 0 1 13.598661 49.050655)" stroke-width="0"/><rect width="59.61902" height="2.856001" rx="0" ry="0" transform="matrix(.603307 0 0 1 13.598691 37.325731)" stroke-width="0"/><rect width="59.61902" height="2.856001" rx="0" ry="0" transform="matrix(.852122 0 0 1 13.598661 19.738345)" stroke-width="0"/><rect width="59.61902" height="2.856001" rx="0" ry="0" transform="matrix(.852122 0 0 1 13.598661 31.463269)" stroke-width="0"/><rect width="59.61902" height="2.856001" rx="0" ry="0" transform="matrix(.852122 0 0 1 13.598661 13.875883)" stroke-width="0"/><rect width="9.7404" height="29.750097" rx="0" ry="0" transform="matrix(0 1-1 0 73.406188 49.330578)" stroke-width="0"/><rect width="9.7404" height="29.750097" rx="0" ry="0" transform="translate(53.660939 39.325731)" stroke-width="0"/></svg>